# xmcd CD database file
#
# Track frame offsets:
#	150
#	23553
#	44866
#	114662
#	132353
#	150601
#	188633
#	208274
#	228055
#
# Disc length: 3272 seconds
#
# Revision: 0
# Processed by: cddbd v1.5.2PL0 Copyright (c) Steve Scherf et al.
# Submitted via: jetAudio 7
#
DISCID=760cc609
DTITLE=梁銘越 - 成吉思汗的夢
DYEAR=1900
DGENRE=Folk
TTITLE0=潮林道
TTITLE1=遼闊的草原
TTITLE2=成吉思汗的夢組曲(馬頭琴幻想曲, 阿爾
TTITLE2=泰之歌, 諾麗格爾瑪)
TTITLE3=瑪柯達贊歌
TTITLE4=藍藍的天
TTITLE5=大漠瑰
TTITLE6=鷹舞
TTITLE7=海市蜃樓
TTITLE8=錫林郭勒
EXTD=GN9707-2梁銘越新世界音樂- 蒙古專輯
EXTT0=
EXTT1=
EXTT2=
EXTT3=
EXTT4=
EXTT5=
EXTT6=
EXTT7=
EXTT8=
PLAYORDER=
